<?xml version="1.0" encoding="UTF-8" standalone="no"?>
<svg
   xmlns:dc="http://purl.org/dc/elements/1.1/"
   xmlns:cc="http://creativecommons.org/ns#"
   xmlns:rdf="http://www.w3.org/1999/02/22-rdf-syntax-ns#"
   xmlns:svg="http://www.w3.org/2000/svg"
   xmlns="http://www.w3.org/2000/svg"
   xmlns:sodipodi="http://sodipodi.sourceforge.net/DTD/sodipodi-0.dtd"
   xmlns:inkscape="http://www.inkscape.org/namespaces/inkscape"
   aria-hidden="true"
   focusable="false"
   data-prefix="fas"
   data-icon="carrot"
   class="svg-inline--fa fa-carrot fa-w-16"
   role="img"
   viewBox="0 0 60 60"
   version="1.1"
   id="svg827"
   sodipodi:docname="carrot.svg"
   width="60"
   height="60"
   inkscape:version="0.92.4 (5da689c313, 2019-01-14)">
  <metadata
     id="metadata833">
    <rdf:RDF>
      <cc:Work
         rdf:about="">
        <dc:format>image/svg+xml</dc:format>
        <dc:type
           rdf:resource="http://purl.org/dc/dcmitype/StillImage" />
        <dc:title></dc:title>
      </cc:Work>
    </rdf:RDF>
  </metadata>
  <defs
     id="defs831" />
  <sodipodi:namedview
     pagecolor="#ffffff"
     bordercolor="#666666"
     borderopacity="1"
     objecttolerance="10"
     gridtolerance="10"
     guidetolerance="10"
     inkscape:pageopacity="0"
     inkscape:pageshadow="2"
     inkscape:window-width="1920"
     inkscape:window-height="1017"
     id="namedview829"
     showgrid="false"
     inkscape:zoom="4.6845824"
     inkscape:cx="3.0649383"
     inkscape:cy="12.101783"
     inkscape:window-x="-8"
     inkscape:window-y="-8"
     inkscape:window-maximized="1"
     inkscape:current-layer="svg827" />
  <path
     d="m 34.992271,18.31337 c -6.176376,-3.012 -13.419262,-1.23058 -17.60326,3.84413 l 6.469374,6.46937 c 0.738353,0.73835 0.738353,1.92206 0,2.64869 -0.363316,0.36332 -0.843831,0.55084 -1.324346,0.55084 -0.480515,0 -0.96103,-0.18752 -1.324347,-0.55084 L 15.326312,25.39218 0.31314586,56.18031 c -0.33987653,0.70319 -0.36331629,1.55874 0,2.30881 0.63287353,1.30091 2.21505734,1.84003 3.51596404,1.20715 L 19.48687,52.05491 13.720689,46.28873 c -0.738353,-0.72663 -0.738353,-1.92206 0,-2.64869 0.738352,-0.72664 1.92206,-0.72664 2.648693,0 l 6.680331,6.68033 11.954278,-5.8365 c 2.812772,-1.37123 5.215347,-3.66833 6.692052,-6.69205 3.527684,-7.23117 0.527395,-15.95076 -6.703772,-19.47845 z m 10.79401,-4.09023 C 48.071658,9.45315 46.88795,3.81588 42.235157,-0.03996 36.340058,4.84723 36.08222,12.55891 41.309287,17.76254 l 0.93759,0.93759 c 5.203627,5.22707 12.927028,4.96923 17.802498,-0.92587 -3.85584,-4.65279 -9.493103,-5.8365 -14.263094,-3.55112 z"
     id="path825"
     inkscape:connector-curvature="0"
     style="fill:#0e0702;stroke-width:0.1171988;fill-opacity:1" />
</svg>
