<?xml version="1.0" encoding="UTF-8" standalone="no"?>
<!-- Generator: Adobe Illustrator 19.0.0, SVG Export Plug-In . SVG Version: 6.00 Build 0)  -->

<svg
   xmlns:dc="http://purl.org/dc/elements/1.1/"
   xmlns:cc="http://creativecommons.org/ns#"
   xmlns:rdf="http://www.w3.org/1999/02/22-rdf-syntax-ns#"
   xmlns:svg="http://www.w3.org/2000/svg"
   xmlns="http://www.w3.org/2000/svg"
   xmlns:sodipodi="http://sodipodi.sourceforge.net/DTD/sodipodi-0.dtd"
   xmlns:inkscape="http://www.inkscape.org/namespaces/inkscape"
   version="1.1"
   id="Capa_1"
   x="0px"
   y="0px"
   viewBox="0 0 70 70"
   xml:space="preserve"
   sodipodi:docname="cheese.svg"
   width="70"
   height="70"
   inkscape:version="0.92.4 (5da689c313, 2019-01-14)"><metadata
   id="metadata943"><rdf:RDF><cc:Work
       rdf:about=""><dc:format>image/svg+xml</dc:format><dc:type
         rdf:resource="http://purl.org/dc/dcmitype/StillImage" /><dc:title></dc:title></cc:Work></rdf:RDF></metadata><defs
   id="defs941" /><sodipodi:namedview
   pagecolor="#ffffff"
   bordercolor="#666666"
   borderopacity="1"
   objecttolerance="10"
   gridtolerance="10"
   guidetolerance="10"
   inkscape:pageopacity="0"
   inkscape:pageshadow="2"
   inkscape:window-width="1920"
   inkscape:window-height="1017"
   id="namedview939"
   showgrid="false"
   inkscape:zoom="2.6074563"
   inkscape:cx="57.645707"
   inkscape:cy="-13.998953"
   inkscape:window-x="-8"
   inkscape:window-y="-8"
   inkscape:window-maximized="1"
   inkscape:current-layer="Capa_1" />
<g
   id="g906"
   transform="matrix(0.13671848,0,0,0.13671848,0,-1.3206175)">
	<g
   id="g904">
		<g
   id="g902">
			<path
   d="m 475.429,283.427 c 0.112,-21.511 15.108,-40.075 36.114,-44.709 l 0.274,-19.291 H 0 v 219.429 c 0.03,10.087 8.199,18.256 18.286,18.286 h 247.771 c 4.332,-21.215 22.953,-36.482 44.606,-36.57 21.653,-0.088 40.398,15.025 44.903,36.204 l 138.149,0.366 c 10.087,-0.03 18.256,-8.199 18.286,-18.286 V 328.227 c -21.198,-4.495 -36.412,-23.132 -36.572,-44.8 z M 201.874,252.524 c 0.464,-1.107 1.113,-2.128 1.92,-3.017 0.859,-0.846 1.887,-1.5 3.017,-1.92 3.404,-1.434 7.338,-0.677 9.966,1.92 0.826,0.874 1.478,1.898 1.92,3.017 1.632,3.828 0.472,8.275 -2.821,10.82 -3.293,2.545 -7.889,2.545 -11.182,0 -3.293,-2.545 -4.451,-6.991 -2.82,-10.82 z M 36.571,292.57 c 0,-15.148 12.28,-27.429 27.429,-27.429 15.149,0 27.429,12.28 27.429,27.429 0,15.149 -12.281,27.429 -27.429,27.429 C 48.87,319.954 36.616,307.7 36.571,292.57 Z m 45.715,137.143 c -15.148,0 -27.429,-12.28 -27.429,-27.429 0,-15.149 12.28,-27.429 27.429,-27.429 15.149,0 27.429,12.28 27.429,27.429 -0.045,15.13 -12.299,27.385 -27.429,27.429 z M 192,393.141 c -30.297,0 -54.857,-24.56 -54.857,-54.857 0,-30.297 24.56,-54.857 54.857,-54.857 30.297,0 54.857,24.56 54.857,54.857 -0.024,30.287 -24.57,54.833 -54.857,54.857 z m 116.206,-2.651 c -0.889,0.807 -1.91,1.456 -3.017,1.92 -2.214,0.975 -4.735,0.975 -6.949,0 -2.296,-0.833 -4.104,-2.641 -4.937,-4.937 -0.975,-2.214 -0.975,-4.735 0,-6.949 0.464,-1.107 1.113,-2.128 1.92,-3.017 3.667,-3.383 9.316,-3.383 12.983,0 0.807,0.889 1.456,1.91 1.92,3.017 0.512,1.085 0.763,2.275 0.731,3.474 -0.009,2.426 -0.96,4.753 -2.651,6.492 z m 20.937,-52.206 c -18.49,0 -35.159,-11.138 -42.234,-28.22 -7.076,-17.082 -3.165,-36.745 9.91,-49.819 13.074,-13.074 32.737,-16.985 49.819,-9.91 17.082,7.076 28.22,23.745 28.22,42.234 -0.01,25.245 -20.472,45.706 -45.715,45.715 z m 92.16,-40.045 c 0.442,-1.119 1.094,-2.143 1.92,-3.017 3.667,-3.383 9.316,-3.383 12.983,0 0.826,0.874 1.478,1.898 1.92,3.017 1.632,3.828 0.472,8.275 -2.821,10.82 -3.293,2.545 -7.889,2.545 -11.182,0 -3.292,-2.545 -4.452,-6.992 -2.82,-10.82 z m 61.703,129.908 c -6.859,6.859 -16.163,10.711 -25.863,10.709 -20.198,0 -36.571,-16.374 -36.571,-36.571 0,-20.197 16.374,-36.571 36.571,-36.571 20.197,0 36.571,16.374 36.571,36.571 0.003,9.699 -3.849,19.003 -10.708,25.862 z"
   id="path898"
   inkscape:connector-curvature="0" />
			<path
   d="m 299.232,123.874 c -3.782,-1.471 -8.081,-0.245 -10.518,3 -13.251,15.652 -34.124,22.609 -54.116,18.036 -19.992,-4.573 -35.765,-19.912 -40.893,-39.768 -1.704,-6.745 -2.134,-13.749 -1.268,-20.652 0.563,-3.815 -1.488,-7.536 -5.013,-9.098 L 143.379,56.276 c -4.108,-1.798 -8.763,-1.888 -12.937,-0.25 C 98.252,68.579 69.65,88.87 47.166,115.106 25.888,140.004 10.574,169.43 2.389,201.142 h 474.75 z"
   id="path900"
   inkscape:connector-curvature="0" />
		</g>
	</g>
</g>
<g
   id="g908"
   transform="translate(0,-442)">
</g>
<g
   id="g910"
   transform="translate(0,-442)">
</g>
<g
   id="g912"
   transform="translate(0,-442)">
</g>
<g
   id="g914"
   transform="translate(0,-442)">
</g>
<g
   id="g916"
   transform="translate(0,-442)">
</g>
<g
   id="g918"
   transform="translate(0,-442)">
</g>
<g
   id="g920"
   transform="translate(0,-442)">
</g>
<g
   id="g922"
   transform="translate(0,-442)">
</g>
<g
   id="g924"
   transform="translate(0,-442)">
</g>
<g
   id="g926"
   transform="translate(0,-442)">
</g>
<g
   id="g928"
   transform="translate(0,-442)">
</g>
<g
   id="g930"
   transform="translate(0,-442)">
</g>
<g
   id="g932"
   transform="translate(0,-442)">
</g>
<g
   id="g934"
   transform="translate(0,-442)">
</g>
<g
   id="g936"
   transform="translate(0,-442)">
</g>
</svg>