<?xml version="1.0" encoding="UTF-8" standalone="no"?>
<svg
   xmlns:dc="http://purl.org/dc/elements/1.1/"
   xmlns:cc="http://creativecommons.org/ns#"
   xmlns:rdf="http://www.w3.org/1999/02/22-rdf-syntax-ns#"
   xmlns:svg="http://www.w3.org/2000/svg"
   xmlns="http://www.w3.org/2000/svg"
   xmlns:sodipodi="http://sodipodi.sourceforge.net/DTD/sodipodi-0.dtd"
   xmlns:inkscape="http://www.inkscape.org/namespaces/inkscape"
   aria-hidden="true"
   focusable="false"
   data-prefix="fas"
   data-icon="door-open"
   class="svg-inline--fa fa-door-open fa-w-20"
   role="img"
   viewBox="0 0 100 100"
   version="1.1"
   id="svg3255"
   sodipodi:docname="door.svg"
   width="100"
   height="100"
   inkscape:version="0.92.4 (5da689c313, 2019-01-14)">
  <metadata
     id="metadata3261">
    <rdf:RDF>
      <cc:Work
         rdf:about="">
        <dc:format>image/svg+xml</dc:format>
        <dc:type
           rdf:resource="http://purl.org/dc/dcmitype/StillImage" />
        <dc:title></dc:title>
      </cc:Work>
    </rdf:RDF>
  </metadata>
  <defs
     id="defs3259" />
  <sodipodi:namedview
     pagecolor="#ffffff"
     bordercolor="#666666"
     borderopacity="1"
     objecttolerance="10"
     gridtolerance="10"
     guidetolerance="10"
     inkscape:pageopacity="0"
     inkscape:pageshadow="2"
     inkscape:window-width="1920"
     inkscape:window-height="1017"
     id="namedview3257"
     showgrid="false"
     inkscape:zoom="0.44375"
     inkscape:cx="320"
     inkscape:cy="165.85915"
     inkscape:window-x="-8"
     inkscape:window-y="-8"
     inkscape:window-maximized="1"
     inkscape:current-layer="svg3255" />
  <path
     d="M 97.5,90 H 85 V 37.72656 C 85,33.46719 81.635939,30 77.5,30 H 60 v 10 h 15 v 60 h 22.5 c 1.38125,0 2.5,-1.11875 2.5,-2.5 v -5 C 100,91.11875 98.88125,90 97.5,90 Z m -48.7125,-69.84219 -30,7.77188 C 16.560937,28.50625 15,30.57811 15,32.95625 V 90 H 2.5 C 1.11875,90 0,91.11875 0,92.5 v 5 c 0,1.38125 1.11875,2.5 2.5,2.5 H 55 V 25.18436 c 0,-3.37186 -3.05625,-5.8453 -6.2125,-5.02655 z M 41.25,65 c -2.070311,0 -3.75,-2.23906 -3.75,-5 0,-2.76094 1.679689,-5 3.75,-5 2.070311,0 3.75,2.23906 3.75,5 0,2.76094 -1.679689,5 -3.75,5 z"
     id="path3253"
     inkscape:connector-curvature="0"
     style="fill:currentColor;stroke-width:0.15625" />
</svg>
