<?xml version="1.0" encoding="UTF-8" standalone="no"?>
<svg
   xmlns:dc="http://purl.org/dc/elements/1.1/"
   xmlns:cc="http://creativecommons.org/ns#"
   xmlns:rdf="http://www.w3.org/1999/02/22-rdf-syntax-ns#"
   xmlns:svg="http://www.w3.org/2000/svg"
   xmlns="http://www.w3.org/2000/svg"
   xmlns:sodipodi="http://sodipodi.sourceforge.net/DTD/sodipodi-0.dtd"
   xmlns:inkscape="http://www.inkscape.org/namespaces/inkscape"
   aria-hidden="true"
   focusable="false"
   data-prefix="fas"
   data-icon="ellipsis-h"
   class="svg-inline--fa fa-ellipsis-h fa-w-16"
   role="img"
   viewBox="0 0 100 30"
   version="1.1"
   id="svg4974"
   sodipodi:docname="dots.svg"
   width="100"
   height="30"
   inkscape:version="0.92.4 (5da689c313, 2019-01-14)">
  <metadata
     id="metadata4980">
    <rdf:RDF>
      <cc:Work
         rdf:about="">
        <dc:format>image/svg+xml</dc:format>
        <dc:type
           rdf:resource="http://purl.org/dc/dcmitype/StillImage" />
        <dc:title></dc:title>
      </cc:Work>
    </rdf:RDF>
  </metadata>
  <defs
     id="defs4978" />
  <sodipodi:namedview
     pagecolor="#ffffff"
     bordercolor="#666666"
     borderopacity="1"
     objecttolerance="10"
     gridtolerance="10"
     guidetolerance="10"
     inkscape:pageopacity="0"
     inkscape:pageshadow="2"
     inkscape:window-width="1920"
     inkscape:window-height="1017"
     id="namedview4976"
     showgrid="false"
     inkscape:zoom="5.2149125"
     inkscape:cx="75.685768"
     inkscape:cy="55.113743"
     inkscape:window-x="-8"
     inkscape:window-y="-8"
     inkscape:window-maximized="1"
     inkscape:current-layer="svg4974" />
  <path
     d="m 64.65406,15.187815 c 0,8.02419 -6.491935,14.51613 -14.516129,14.51613 -8.024194,0 -14.516129,-6.49194 -14.516129,-14.51613 0,-8.0241901 6.491935,-14.51613004 14.516129,-14.51613004 8.024194,0 14.516129,6.49193994 14.516129,14.51613004 z M 85.621802,0.67168496 c -8.024194,0 -14.516129,6.49193994 -14.516129,14.51613004 0,8.02419 6.491935,14.51613 14.516129,14.51613 8.024186,0 14.516128,-6.49194 14.516128,-14.51613 0,-8.0241901 -6.491942,-14.51613004 -14.516128,-14.51613004 z m -70.967742,0 c -8.0241939,0 -14.51612888,6.49193994 -14.51612888,14.51613004 0,8.02419 6.49193498,14.51613 14.51612888,14.51613 8.024194,0 14.516129,-6.49194 14.516129,-14.51613 0,-8.0241901 -6.491935,-14.51613004 -14.516129,-14.51613004 z"
     id="path4972"
     inkscape:connector-curvature="0"
     style="fill:currentColor;stroke-width:0.2016129" />
</svg>
