<?xml version="1.0" encoding="UTF-8" standalone="no"?>
<!-- Generator: Adobe Illustrator 19.0.0, SVG Export Plug-In . SVG Version: 6.00 Build 0)  -->

<svg
   xmlns:dc="http://purl.org/dc/elements/1.1/"
   xmlns:cc="http://creativecommons.org/ns#"
   xmlns:rdf="http://www.w3.org/1999/02/22-rdf-syntax-ns#"
   xmlns:svg="http://www.w3.org/2000/svg"
   xmlns="http://www.w3.org/2000/svg"
   xmlns:sodipodi="http://sodipodi.sourceforge.net/DTD/sodipodi-0.dtd"
   xmlns:inkscape="http://www.inkscape.org/namespaces/inkscape"
   version="1.1"
   id="Capa_1"
   x="0px"
   y="0px"
   viewBox="0 0 70.997008 70.997008"
   xml:space="preserve"
   sodipodi:docname="fish.svg"
   width="70.997009"
   height="70.997009"
   inkscape:version="0.92.4 (5da689c313, 2019-01-14)"><metadata
   id="metadata1572"><rdf:RDF><cc:Work
       rdf:about=""><dc:format>image/svg+xml</dc:format><dc:type
         rdf:resource="http://purl.org/dc/dcmitype/StillImage" /><dc:title></dc:title></cc:Work></rdf:RDF></metadata><defs
   id="defs1570" /><sodipodi:namedview
   pagecolor="#ffffff"
   bordercolor="#666666"
   borderopacity="1"
   objecttolerance="10"
   gridtolerance="10"
   guidetolerance="10"
   inkscape:pageopacity="0"
   inkscape:pageshadow="2"
   inkscape:window-width="1920"
   inkscape:window-height="1017"
   id="namedview1568"
   showgrid="false"
   inkscape:zoom="3.6875215"
   inkscape:cx="70.023276"
   inkscape:cy="30.496557"
   inkscape:window-x="-8"
   inkscape:window-y="-8"
   inkscape:window-maximized="1"
   inkscape:current-layer="Capa_1" />
<g
   id="g1535"
   transform="matrix(0.13866865,0,0,0.13866865,0,0.46934669)">
	<g
   id="g1533">
		<path
   d="M 510.646,261.469 C 468.003,185.134 397.9,138.456 315.733,129.806 274.538,77.776 145.277,64.595 139.698,64.052 c -3.635,-0.375 -7.292,1.208 -9.521,4.167 -2.24,2.938 -2.792,6.833 -1.458,10.281 12.673,32.896 25.656,70.313 29.092,85.621 -23.473,10.741 -43.99,22.163 -57.217,31.681 C 71.906,149.906 13.344,149.333 10.667,149.333 4.771,149.333 0,154.104 0,160 0,221.802 21.542,252.823 35.948,266.667 21.542,280.51 0,311.531 0,373.333 0,379.229 4.771,384 10.667,384 c 2.677,0 61.24,-0.573 89.927,-46.469 17.573,12.646 47.957,28.637 81.159,41.931 -7.337,11.867 -11.086,30.742 -11.086,57.871 0,5.896 4.771,10.667 10.667,10.667 3.172,0 75.708,-0.629 111.832,-43.003 91.87,-1.775 170.978,-49.891 217.48,-133.133 1.802,-3.229 1.802,-7.166 0,-10.395 z m -213.75,-74.25 c -0.198,0.302 -19.563,30.365 -19.563,79.448 0,26.667 5.708,47.5 10.49,60.281 2.063,5.521 -0.729,11.667 -6.25,13.729 -1.229,0.458 -2.5,0.677 -3.74,0.677 -4.323,0 -8.385,-2.646 -9.99,-6.927 C 262.437,320 256,296.531 256,266.666 c 0,-55.917 22.177,-89.833 23.125,-91.25 3.26,-4.875 9.844,-6.198 14.75,-2.969 4.896,3.251 6.25,9.855 3.021,14.772 z m 39.687,173.656 c -1.823,1.208 -3.875,1.792 -5.906,1.792 -3.448,0 -6.833,-1.667 -8.885,-4.75 -0.948,-1.417 -23.125,-35.333 -23.125,-91.25 0,-55.917 22.177,-89.833 23.125,-91.25 3.25,-4.875 9.854,-6.198 14.75,-2.969 4.896,3.25 6.25,9.854 3.021,14.771 -0.198,0.302 -19.563,30.364 -19.563,79.447 0,49.531 19.344,79.125 19.542,79.417 3.271,4.906 1.948,11.521 -2.959,14.792 z M 384,256 c -11.76,0 -21.333,-9.573 -21.333,-21.333 0,-11.76 9.573,-21.333 21.333,-21.333 11.76,0 21.333,9.573 21.333,21.333 0,11.76 -9.573,21.333 -21.333,21.333 z"
   id="path1531"
   inkscape:connector-curvature="0" />
	</g>
</g>
<g
   id="g1537"
   transform="translate(0,-441)">
</g>
<g
   id="g1539"
   transform="translate(0,-441)">
</g>
<g
   id="g1541"
   transform="translate(0,-441)">
</g>
<g
   id="g1543"
   transform="translate(0,-441)">
</g>
<g
   id="g1545"
   transform="translate(0,-441)">
</g>
<g
   id="g1547"
   transform="translate(0,-441)">
</g>
<g
   id="g1549"
   transform="translate(0,-441)">
</g>
<g
   id="g1551"
   transform="translate(0,-441)">
</g>
<g
   id="g1553"
   transform="translate(0,-441)">
</g>
<g
   id="g1555"
   transform="translate(0,-441)">
</g>
<g
   id="g1557"
   transform="translate(0,-441)">
</g>
<g
   id="g1559"
   transform="translate(0,-441)">
</g>
<g
   id="g1561"
   transform="translate(0,-441)">
</g>
<g
   id="g1563"
   transform="translate(0,-441)">
</g>
<g
   id="g1565"
   transform="translate(0,-441)">
</g>
</svg>