<?xml version="1.0" encoding="UTF-8" standalone="no"?>
<svg
   xmlns:dc="http://purl.org/dc/elements/1.1/"
   xmlns:cc="http://creativecommons.org/ns#"
   xmlns:rdf="http://www.w3.org/1999/02/22-rdf-syntax-ns#"
   xmlns:svg="http://www.w3.org/2000/svg"
   xmlns="http://www.w3.org/2000/svg"
   xmlns:sodipodi="http://sodipodi.sourceforge.net/DTD/sodipodi-0.dtd"
   xmlns:inkscape="http://www.inkscape.org/namespaces/inkscape"
   aria-hidden="true"
   focusable="false"
   data-prefix="fas"
   data-icon="microphone"
   class="svg-inline--fa fa-microphone fa-w-11"
   role="img"
   viewBox="0 0 70 102"
   version="1.1"
   id="svg3818"
   sodipodi:docname="mic.svg"
   inkscape:version="0.92.4 (5da689c313, 2019-01-14)"
   width="70"
   height="102">
  <metadata
     id="metadata3824">
    <rdf:RDF>
      <cc:Work
         rdf:about="">
        <dc:format>image/svg+xml</dc:format>
        <dc:type
           rdf:resource="http://purl.org/dc/dcmitype/StillImage" />
        <dc:title></dc:title>
      </cc:Work>
    </rdf:RDF>
  </metadata>
  <defs
     id="defs3822" />
  <sodipodi:namedview
     pagecolor="#ffffff"
     bordercolor="#666666"
     borderopacity="1"
     objecttolerance="10"
     gridtolerance="10"
     guidetolerance="10"
     inkscape:pageopacity="0"
     inkscape:pageshadow="2"
     inkscape:window-width="1920"
     inkscape:window-height="1017"
     id="namedview3820"
     showgrid="false"
     inkscape:zoom="1.84375"
     inkscape:cx="47.37989"
     inkscape:cy="30.409157"
     inkscape:window-x="-8"
     inkscape:window-y="-8"
     inkscape:window-maximized="1"
     inkscape:current-layer="svg3818" />
  <path
     d="m 35,69.60763 c 10.54375,0 19.09091,-8.54 19.09091,-19.040002 v -31.85 c 0,-10.5 -8.54716,-19.109998 -19.09091,-19.109998 -10.54375,0 -19.09091,8.609998 -19.09091,19.109998 v 31.85 C 15.90909,61.06763 24.45625,69.60763 35,69.60763 Z M 66.818181,37.827628 h -3.181817 c -1.757954,0 -3.181819,1.4 -3.181819,3.15 v 9.59 c 0,14.840002 -12.824715,26.810002 -27.99801,25.340002 -13.224433,-1.33 -22.9110802,-13.23 -22.9110802,-26.460002 v -8.47 c 0,-1.75 -1.4238637,-3.15 -3.1818184,-3.15 H 3.1818182 c -1.7579546,0 -3.1818182,1.4 -3.1818182,3.15 v 7.98 C 0,66.80763 12.721306,82.69763 30.227273,85.14763 v 6.79 H 19.09091 c -1.757955,0 -3.18182,1.4 -3.18182,3.15 v 3.22 c 0,1.75 1.423865,3.15 3.18182,3.15 h 31.81818 c 1.757955,0 3.18182,-1.4 3.18182,-3.15 v -3.22 c 0,-1.75 -1.423865,-3.15 -3.18182,-3.15 H 39.772727 v -6.72 C 56.81733,82.83763 70,68.20763 70,50.567628 v -9.59 c 0,-1.75 -1.423864,-3.15 -3.181819,-3.15 z"
     id="path3816"
     inkscape:connector-curvature="0"
     style="fill:currentColor;stroke-width:0.19886363" />
</svg>
