<?xml version="1.0" encoding="UTF-8" standalone="no"?>
<!-- Generator: Adobe Illustrator 19.0.0, SVG Export Plug-In . SVG Version: 6.00 Build 0)  -->

<svg
   xmlns:dc="http://purl.org/dc/elements/1.1/"
   xmlns:cc="http://creativecommons.org/ns#"
   xmlns:rdf="http://www.w3.org/1999/02/22-rdf-syntax-ns#"
   xmlns:svg="http://www.w3.org/2000/svg"
   xmlns="http://www.w3.org/2000/svg"
   xmlns:sodipodi="http://sodipodi.sourceforge.net/DTD/sodipodi-0.dtd"
   xmlns:inkscape="http://www.inkscape.org/namespaces/inkscape"
   version="1.1"
   id="Layer_1"
   x="0px"
   y="0px"
   viewBox="0 0 60 60"
   xml:space="preserve"
   sodipodi:docname="previous.svg"
   inkscape:version="0.92.4 (5da689c313, 2019-01-14)"
   width="60"
   height="60"><metadata
   id="metadata919"><rdf:RDF><cc:Work
       rdf:about=""><dc:format>image/svg+xml</dc:format><dc:type
         rdf:resource="http://purl.org/dc/dcmitype/StillImage" /><dc:title></dc:title></cc:Work></rdf:RDF></metadata><defs
   id="defs917" /><sodipodi:namedview
   pagecolor="#ffffff"
   bordercolor="#666666"
   borderopacity="1"
   objecttolerance="10"
   gridtolerance="10"
   guidetolerance="10"
   inkscape:pageopacity="0"
   inkscape:pageshadow="2"
   inkscape:window-width="1920"
   inkscape:window-height="1017"
   id="namedview915"
   showgrid="false"
   inkscape:zoom="1.3567142"
   inkscape:cx="198.75129"
   inkscape:cy="-37.150705"
   inkscape:window-x="-8"
   inkscape:window-y="-8"
   inkscape:window-maximized="1"
   inkscape:current-layer="Layer_1"
   units="px" />
<g
   id="g882"
   transform="matrix(-0.10159908,0,0,-0.10159908,63.267578,56.301831)">
	<g
   id="g880">
		<path
   d="M 382.678,226.804 163.73,7.86 C 158.666,2.792 151.906,0 144.698,0 137.49,0 130.73,2.792 125.666,7.86 l -16.124,16.12 c -10.492,10.504 -10.492,27.576 0,38.064 L 293.398,245.9 109.338,429.96 c -5.064,5.068 -7.86,11.824 -7.86,19.028 0,7.212 2.796,13.968 7.86,19.04 l 16.124,16.116 c 5.068,5.068 11.824,7.86 19.032,7.86 7.208,0 13.968,-2.792 19.032,-7.86 L 382.678,265 c 5.076,-5.084 7.864,-11.872 7.848,-19.088 0.016,-7.244 -2.772,-14.028 -7.848,-19.108 z"
   id="path878"
   inkscape:connector-curvature="0" />
	</g>
</g>
<g
   id="g884"
   transform="translate(0,-432.004)">
</g>
<g
   id="g886"
   transform="translate(0,-432.004)">
</g>
<g
   id="g888"
   transform="translate(0,-432.004)">
</g>
<g
   id="g890"
   transform="translate(0,-432.004)">
</g>
<g
   id="g892"
   transform="translate(0,-432.004)">
</g>
<g
   id="g894"
   transform="translate(0,-432.004)">
</g>
<g
   id="g896"
   transform="translate(0,-432.004)">
</g>
<g
   id="g898"
   transform="translate(0,-432.004)">
</g>
<g
   id="g900"
   transform="translate(0,-432.004)">
</g>
<g
   id="g902"
   transform="translate(0,-432.004)">
</g>
<g
   id="g904"
   transform="translate(0,-432.004)">
</g>
<g
   id="g906"
   transform="translate(0,-432.004)">
</g>
<g
   id="g908"
   transform="translate(0,-432.004)">
</g>
<g
   id="g910"
   transform="translate(0,-432.004)">
</g>
<g
   id="g912"
   transform="translate(0,-432.004)">
</g>
<g
   id="g1489"
   transform="matrix(-0.10159908,0,0,-0.10159908,63.267578,56.301831)">
	<g
   id="g1487"
   transform="translate(169.24516,-0.12646207)">
		<path
   id="path1485"
   d="M 382.678,226.804 163.73,7.86 C 158.666,2.792 151.906,0 144.698,0 137.49,0 130.73,2.792 125.666,7.86 l -16.124,16.12 c -10.492,10.504 -10.492,27.576 0,38.064 L 293.398,245.9 109.338,429.96 c -5.064,5.068 -7.86,11.824 -7.86,19.028 0,7.212 2.796,13.968 7.86,19.04 l 16.124,16.116 c 5.068,5.068 11.824,7.86 19.032,7.86 7.208,0 13.968,-2.792 19.032,-7.86 L 382.678,265 c 5.076,-5.084 7.864,-11.872 7.848,-19.088 0.016,-7.244 -2.772,-14.028 -7.848,-19.108 z"
   inkscape:connector-curvature="0" />
	</g>
</g></svg>